# Blender 4.2.0
# www.blender.org
o Bench01
v 1.000000 0.500000 0.321651
v 1.000000 0.500000 -0.280067
v 1.000000 0.500000 -0.189865
v 1.000000 1.000000 -0.280067
v 1.000000 0.954634 -0.189865
v 0.000000 0.000000 -0.370833
v 0.000000 0.500000 -0.280067
v 0.000000 0.000000 0.469933
v 0.000000 0.500000 0.321651
v 0.000000 0.500000 -0.189865
v 0.000000 0.000000 -0.189865
v 0.000000 1.000000 -0.280067
v 0.000000 0.954634 -0.189865
v 0.000000 0.369330 0.360403
v 0.000000 0.369330 -0.280067
v 0.923956 0.369330 -0.280067
v 0.923956 0.000000 -0.370833
v 0.923956 0.000000 -0.189865
v 0.923956 0.369330 0.360403
v 0.923956 0.000000 0.469933
v 0.923956 0.369330 -0.189865
v 1.000000 0.417798 -0.280067
v 0.951533 0.369330 -0.280067
v 0.951533 0.369330 0.360403
v 1.000000 0.417798 0.346029
v 1.000000 0.417798 -0.189865
v 0.951533 0.369330 -0.189865
v 0.851870 0.500000 -0.280067
v 0.851870 0.500000 -0.189865
v 0.851870 1.000000 -0.280067
v 0.851870 0.954634 -0.189865
v 0.851870 0.500000 0.321651
v 0.851870 0.369330 0.360403
v 1.000000 0.549899 -0.189865
v 1.000000 0.549899 0.321651
v 0.851870 0.549899 -0.189865
v 0.851870 0.549899 0.321651
v 1.000000 0.709712 -0.189865
v 0.851870 0.709712 -0.189865
v 1.000000 0.677411 -0.189865
v 0.851870 0.677411 -0.189865
v 0.851870 0.697703 0.310100
v 0.851870 0.709712 0.310100
v 1.000000 0.709712 0.310100
v 1.000000 0.697703 0.310100
v 1.000000 0.709712 0.290272
v 1.000000 0.696898 0.290272
v 0.851870 0.696898 0.290272
v 0.851870 0.709712 0.290272
v 1.000000 0.687869 0.304146
v 0.851870 0.687869 0.304146
v 0.851870 0.687065 0.297024
v 1.000000 0.687065 0.297024
v -1.000000 0.500000 0.321651
v -1.000000 0.500000 -0.280067
v -1.000000 0.500000 -0.189865
v -1.000000 1.000000 -0.280067
v -1.000000 0.954634 -0.189865
v -0.923956 0.369330 -0.280067
v -0.923956 0.000000 -0.370833
v -0.923956 0.000000 -0.189865
v -0.923956 0.369330 0.360403
v -0.923956 0.000000 0.469933
v -0.923956 0.369330 -0.189865
v -1.000000 0.417798 -0.280067
v -0.951533 0.369330 -0.280067
v -0.951533 0.369330 0.360403
v -1.000000 0.417798 0.346029
v -1.000000 0.417798 -0.189865
v -0.951533 0.369330 -0.189865
v -0.851870 0.500000 -0.280067
v -0.851870 0.500000 -0.189865
v -0.851870 1.000000 -0.280067
v -0.851870 0.954634 -0.189865
v -0.851870 0.500000 0.321651
v -0.851870 0.369330 0.360403
v -1.000000 0.549899 -0.189865
v -1.000000 0.549899 0.321651
v -0.851870 0.549899 -0.189865
v -0.851870 0.549899 0.321651
v -1.000000 0.709712 -0.189865
v -0.851870 0.709712 -0.189865
v -1.000000 0.677411 -0.189865
v -0.851870 0.677411 -0.189865
v -0.851870 0.697703 0.310100
v -0.851870 0.709712 0.310100
v -1.000000 0.709712 0.310100
v -1.000000 0.697703 0.310100
v -1.000000 0.709712 0.290272
v -1.000000 0.696898 0.290272
v -0.851870 0.696898 0.290272
v -0.851870 0.709712 0.290272
v -1.000000 0.687869 0.304146
v -0.851870 0.687869 0.304146
v -0.851870 0.687065 0.297024
v -1.000000 0.687065 0.297024
vn 1.0000 -0.0000 -0.0000
vn -0.0000 -1.0000 -0.0000
vn -0.0000 -0.0000 -1.0000
vn -0.0000 0.8934 0.4493
vn -0.0000 1.0000 -0.0000
vn -0.0000 0.2843 0.9587
vn -0.0000 0.2387 -0.9711
vn 0.7071 -0.7071 -0.0000
vn -1.0000 -0.0000 -0.0000
vn -0.0000 -0.0000 1.0000
vn -0.0000 -0.9992 0.0406
vn -0.0000 -0.9937 0.1123
vn -0.0000 -0.5179 0.8554
vn -0.0000 -0.5660 -0.8244
vn -0.7071 -0.7071 -0.0000
vn -0.0000 -0.5661 -0.8244
vt 0.328295 0.534825
vt 0.304503 0.560932
vt 0.304503 0.534825
vt 0.481374 0.534825
vt 0.290476 0.267413
vt 0.481374 0.267413
vt 0.388990 0.560932
vt 0.379641 0.560932
vt 0.533733 0.534825
vt 0.533733 0.267413
vt 0.826554 0.578843
vt 0.834535 0.738050
vt 0.826554 0.738050
vt 0.144450 0.289421
vt 0.000000 0.042872
vt 0.144450 0.042872
vt 0.972188 0.289421
vt 1.000000 0.535971
vt 0.972188 0.535971
vt 0.825898 0.246549
vt 0.972188 0.493099
vt 0.825898 0.493099
vt 0.328295 0.560932
vt 0.342736 0.708975
vt 0.328295 0.708975
vt 0.586385 0.535971
vt 0.694413 0.289421
vt 0.694413 0.556834
vt 0.572208 0.578843
vt 0.548164 0.535971
vt 0.586385 0.556834
vt 0.168198 0.000000
vt 0.182201 0.022009
vt 0.182529 0.795909
vt 0.289421 0.769802
vt 0.289421 0.822178
vt 0.182529 0.610543
vt 0.289421 0.578843
vt 0.182201 0.289421
vt 0.290476 0.022009
vt 0.290476 0.289421
vt 0.290476 0.534825
vt 0.304504 0.716031
vt 0.290476 0.560932
vt 0.834535 0.764148
vt 0.826554 0.764148
vt 0.826554 0.726886
vt 0.812112 0.578843
vt 0.826554 0.578843
vt 1.000000 0.578843
vt 0.972188 0.578843
vt 0.000000 0.000000
vt 0.144450 0.000000
vt 0.774589 0.535971
vt 0.765247 0.535971
vt 0.694414 0.289421
vt 0.548164 0.289421
vt 0.586385 0.289421
vt 0.515877 0.534825
vt 0.473005 0.681116
vt 0.473005 0.534825
vt 0.548164 0.578843
vt 0.533733 0.535971
vt 0.694414 0.578843
vt 0.765247 0.578843
vt 0.388990 0.699893
vt 0.385514 0.705632
vt 0.385281 0.699893
vt 0.774589 0.578843
vt 0.811466 0.535971
vt 0.811466 0.578843
vt 0.290476 0.763063
vt 0.293949 0.720191
vt 0.293949 0.763063
vt 0.519291 0.821831
vt 0.522766 0.827570
vt 0.519291 0.827570
vt 0.726368 0.716159
vt 0.683497 0.721829
vt 0.683497 0.716159
vt 0.522999 0.821831
vt 0.525613 0.825846
vt 0.769240 0.717903
vt 0.812112 0.578843
vt 0.812112 0.717903
vt 0.726368 0.578843
vt 0.683497 0.578843
vt 0.519291 0.682869
vt 0.519291 0.663441
vt 0.517224 0.620569
vt 0.519291 0.620569
vt 0.382668 0.703909
vt 0.382435 0.701848
vt 0.296727 0.763063
vt 0.516567 0.534825
vt 0.519291 0.577697
vt 0.516567 0.577697
vt 0.014027 0.738102
vt 0.037819 0.764208
vt 0.014027 0.764208
vt 0.481374 0.000000
vt 0.098514 0.738102
vt 0.169399 0.738102
vt 0.533733 0.000000
vt 0.834535 0.738050
vt 0.842517 0.578843
vt 0.842517 0.738050
vt -0.000000 0.535971
vt 0.144450 0.535971
vt 1.000000 0.042872
vt 0.972188 0.042872
vt 0.972188 0.000000
vt 0.825898 -0.000000
vt 0.037819 0.590058
vt 0.052260 0.738102
vt 0.037819 0.738102
vt 0.694414 0.022009
vt 0.586385 0.042872
vt 0.586385 0.022009
vt 0.548164 0.042872
vt 0.572208 -0.000000
vt 0.182201 0.556834
vt 0.168198 0.578843
vt 0.640625 0.631218
vt 0.533733 0.605112
vt 0.640625 0.578843
vt 0.533733 0.790478
vt 0.533733 0.631218
vt 0.290476 0.556834
vt 0.000000 0.764208
vt 0.000000 0.738102
vt 0.014027 0.583003
vt 0.834535 0.764148
vt 0.842517 0.764148
vt 0.533733 0.534825
vt 0.533733 0.682869
vt 1.000000 -0.000000
vt 0.972188 -0.000000
vt -0.000000 0.578843
vt 0.144450 0.578843
vt 0.774589 0.042872
vt 0.811466 0.042872
vt 0.683496 0.725133
vt 0.640625 0.578843
vt 0.683496 0.578843
vt 0.533733 0.042872
vt 0.548164 -0.000000
vt 0.765247 0.042872
vt 0.694414 0.000000
vt 0.765247 0.000000
vt 0.095038 0.593401
vt 0.098514 0.599140
vt 0.094805 0.599140
vt 0.774589 0.000000
vt 0.811466 0.000000
vt 0.300200 0.763063
vt 0.296727 0.720191
vt 0.300200 0.720191
vt 0.842517 0.584581
vt 0.845992 0.578843
vt 0.846225 0.584581
vt 0.769240 0.721829
vt 0.769240 0.716159
vt 0.848838 0.580566
vt 0.473005 0.681116
vt 0.515877 0.820176
vt 0.473005 0.820176
vt 0.769240 0.578843
vt 0.842517 0.723543
vt 0.851865 0.723543
vt 0.089165 0.738102
vt 0.517224 0.706313
vt 0.519291 0.663441
vt 0.519291 0.706313
vt 0.092192 0.595125
vt 0.302978 0.720191
vt 0.519291 0.577697
vt 0.516567 0.620569
vt 0.516567 0.577697
vt 0.290476 0.534825
vt 0.342736 0.560932
vt 0.473005 0.534825
vt 0.459875 0.560932
vt 0.834535 0.578843
vt 0.000000 0.289421
vt 1.000000 0.289421
vt 0.972188 0.246549
vt 0.586385 0.564815
vt 0.182201 0.014027
vt 0.182529 0.769802
vt 0.290476 0.720191
vt 0.812112 0.726886
vt 0.825898 0.289421
vt 0.825898 0.535971
vt 0.694414 0.535971
vt 0.515877 0.681116
vt 0.533733 0.578843
vt 0.388990 0.705632
vt 0.290476 0.720191
vt 0.726368 0.721829
vt 0.525845 0.823785
vt 0.769240 0.578843
vt 0.528639 0.682869
vt 0.517224 0.663441
vt 0.519291 0.534825
vt 0.290476 -0.000000
vt 0.182529 0.764208
vt 0.834535 0.578843
vt 0.052260 0.590058
vt 0.586385 0.014027
vt 0.182201 0.564815
vt 0.640625 0.822178
vt 0.000000 0.578843
vt 0.519291 0.534825
vt 0.825898 0.042872
vt 0.694414 0.042872
vt 0.640625 0.725133
vt 0.533733 -0.000000
vt 0.098514 0.593401
vt 0.296727 0.763063
vt 0.849071 0.582627
vt 0.517224 0.663441
vt 0.091959 0.597186
vt 0.302978 0.763063
vt 0.519291 0.620569
s 0
f 2/1/1 26/2/1 22/3/1
f 18/4/2 8/5/2 11/6/2
f 2/1/1 38/7/1 40/8/1
f 17/9/2 11/6/2 6/10/2
f 24/11/2 21/12/2 27/13/2
f 7/14/3 30/15/3 28/16/3
f 12/17/4 31/18/4 30/19/4
f 10/20/5 32/21/5 29/22/5
f 3/23/1 35/24/1 1/25/1
f 33/26/6 8/27/6 20/28/6
f 25/29/6 32/30/6 19/31/6
f 28/16/3 22/32/3 16/33/3
f 16/34/1 18/35/1 17/36/1
f 18/35/1 19/37/1 20/38/1
f 15/39/7 17/40/7 6/41/7
f 26/2/8 23/42/8 22/3/8
f 25/43/8 27/44/8 26/2/8
f 27/13/2 16/45/2 23/46/2
f 32/47/9 36/48/9 29/49/9
f 30/19/4 5/50/4 4/51/4
f 28/16/3 4/52/3 2/53/3
f 41/54/10 39/55/10 13/56/10
f 33/26/6 9/57/6 14/58/6
f 36/59/5 35/60/5 34/61/5
f 1/62/10 37/63/10 32/30/10
f 5/64/10 39/55/10 38/65/10
f 46/66/1 45/67/1 47/68/1
f 40/69/10 36/70/10 34/71/10
f 44/72/10 42/73/10 45/74/10
f 49/75/9 42/76/9 43/77/9
f 49/78/5 44/79/5 46/80/5
f 48/81/9 51/82/9 42/76/9
f 40/83/11 48/84/11 41/85/11
f 39/86/5 46/80/5 38/87/5
f 39/88/9 48/81/9 49/75/9
f 38/7/1 47/68/1 40/8/1
f 53/89/12 51/90/12 52/91/12
f 47/68/1 50/92/1 53/93/1
f 42/73/13 50/94/13 45/74/13
f 47/95/14 52/96/14 48/97/14
f 69/98/9 55/99/9 65/100/9
f 8/5/2 61/101/2 11/6/2
f 81/102/9 58/103/9 55/99/9
f 11/6/2 60/104/2 6/10/2
f 64/105/2 67/106/2 70/107/2
f 73/108/3 7/14/3 71/109/3
f 74/110/4 12/17/4 73/111/4
f 75/112/5 10/20/5 72/113/5
f 54/114/9 77/115/9 56/116/9
f 63/117/6 14/58/6 76/118/6
f 62/119/6 75/120/6 68/121/6
f 59/122/3 65/123/3 71/109/3
f 61/124/9 59/125/9 60/126/9
f 61/124/9 62/127/9 64/128/9
f 60/129/7 15/39/7 6/41/7
f 66/130/15 69/98/15 65/100/15
f 70/131/15 68/132/15 69/98/15
f 59/133/2 70/107/2 66/134/2
f 79/88/1 75/135/1 72/136/1
f 58/137/4 73/111/4 57/138/4
f 57/139/3 71/109/3 55/140/3
f 13/56/10 84/141/10 79/142/10
f 76/118/6 9/57/6 75/120/6
f 78/143/5 79/144/5 77/145/5
f 80/146/10 54/147/10 75/120/10
f 82/148/10 58/149/10 81/150/10
f 88/151/9 89/152/9 90/153/9
f 79/142/10 83/154/10 77/155/10
f 85/156/10 87/157/10 88/158/10
f 92/159/1 85/160/1 91/161/1
f 87/162/5 92/78/5 89/163/5
f 94/164/1 91/161/1 85/160/1
f 91/165/11 83/166/11 84/167/11
f 89/163/5 82/86/5 81/168/5
f 82/169/1 91/161/1 84/170/1
f 90/153/9 81/102/9 83/171/9
f 94/172/12 96/173/12 95/174/12
f 90/153/9 93/175/9 88/151/9
f 93/176/13 85/156/13 88/158/13
f 95/177/14 90/178/14 91/179/14
f 2/1/1 3/23/1 26/2/1
f 18/4/2 20/180/2 8/5/2
f 34/181/1 3/23/1 2/1/1
f 2/1/1 4/182/1 5/183/1
f 2/1/1 5/183/1 38/7/1
f 40/8/1 34/181/1 2/1/1
f 17/9/2 18/4/2 11/6/2
f 24/11/2 19/184/2 21/12/2
f 7/14/3 12/185/3 30/15/3
f 12/17/4 13/186/4 31/18/4
f 10/20/5 9/187/5 32/21/5
f 25/43/1 26/2/1 3/23/1
f 3/23/1 34/181/1 35/24/1
f 1/25/1 25/43/1 3/23/1
f 20/28/6 19/31/6 33/26/6
f 33/26/6 14/58/6 8/27/6
f 19/31/6 24/188/6 25/29/6
f 25/29/6 1/62/6 32/30/6
f 32/30/6 33/26/6 19/31/6
f 16/33/3 15/39/3 7/14/3
f 28/16/3 2/53/3 22/32/3
f 16/33/3 7/14/3 28/16/3
f 22/32/3 23/189/3 16/33/3
f 16/34/1 21/190/1 18/35/1
f 18/35/1 21/190/1 19/37/1
f 15/39/7 16/33/7 17/40/7
f 26/2/8 27/44/8 23/42/8
f 25/43/8 24/191/8 27/44/8
f 27/13/2 21/12/2 16/45/2
f 32/47/9 37/192/9 36/48/9
f 30/19/4 31/18/4 5/50/4
f 28/16/3 30/15/3 4/52/3
f 13/56/10 10/193/10 29/194/10
f 13/56/10 29/194/10 36/70/10
f 39/55/10 31/195/10 13/56/10
f 13/56/10 36/70/10 41/54/10
f 33/26/6 32/30/6 9/57/6
f 36/59/5 37/196/5 35/60/5
f 1/62/10 35/197/10 37/63/10
f 5/64/10 31/195/10 39/55/10
f 46/66/1 44/198/1 45/67/1
f 40/69/10 41/54/10 36/70/10
f 44/72/10 43/199/10 42/73/10
f 49/75/9 48/81/9 42/76/9
f 49/78/5 43/200/5 44/79/5
f 48/81/9 52/201/9 51/82/9
f 40/83/11 47/202/11 48/84/11
f 39/86/5 49/78/5 46/80/5
f 39/88/9 41/203/9 48/81/9
f 38/7/1 46/66/1 47/68/1
f 53/89/12 50/204/12 51/90/12
f 47/68/1 45/67/1 50/92/1
f 42/73/13 51/157/13 50/94/13
f 47/95/16 53/205/16 52/96/16
f 69/98/9 56/116/9 55/99/9
f 8/5/2 63/206/2 61/101/2
f 55/99/9 56/116/9 77/115/9
f 55/99/9 77/115/9 83/171/9
f 58/103/9 57/207/9 55/99/9
f 55/99/9 83/171/9 81/102/9
f 11/6/2 61/101/2 60/104/2
f 64/105/2 62/208/2 67/106/2
f 73/108/3 12/185/3 7/14/3
f 74/110/4 13/186/4 12/17/4
f 75/112/5 9/187/5 10/20/5
f 56/116/9 69/98/9 68/132/9
f 54/114/9 78/209/9 77/115/9
f 56/116/9 68/132/9 54/114/9
f 76/118/6 62/119/6 63/117/6
f 63/117/6 8/27/6 14/58/6
f 68/121/6 67/210/6 62/119/6
f 62/119/6 76/118/6 75/120/6
f 75/120/6 54/147/6 68/121/6
f 7/14/3 15/39/3 59/122/3
f 59/122/3 66/211/3 65/123/3
f 65/123/3 55/140/3 71/109/3
f 71/109/3 7/14/3 59/122/3
f 61/124/9 64/128/9 59/125/9
f 61/124/9 63/212/9 62/127/9
f 60/129/7 59/122/7 15/39/7
f 66/130/15 70/131/15 69/98/15
f 70/131/15 67/213/15 68/132/15
f 59/133/2 64/105/2 70/107/2
f 79/88/1 80/214/1 75/135/1
f 58/137/4 74/110/4 73/111/4
f 57/139/3 73/108/3 71/109/3
f 72/215/10 10/193/10 13/56/10
f 13/56/10 74/216/10 82/148/10
f 13/56/10 82/148/10 84/141/10
f 79/142/10 72/215/10 13/56/10
f 76/118/6 14/58/6 9/57/6
f 78/143/5 80/217/5 79/144/5
f 80/146/10 78/218/10 54/147/10
f 82/148/10 74/216/10 58/149/10
f 88/151/9 87/219/9 89/152/9
f 79/142/10 84/141/10 83/154/10
f 85/156/10 86/220/10 87/157/10
f 92/159/1 86/106/1 85/160/1
f 87/162/5 86/200/5 92/78/5
f 94/164/1 95/221/1 91/161/1
f 91/165/11 90/196/11 83/166/11
f 89/163/5 92/78/5 82/86/5
f 82/169/1 92/159/1 91/161/1
f 90/153/9 89/152/9 81/102/9
f 94/172/12 93/222/12 96/173/12
f 90/153/9 96/223/9 93/175/9
f 93/176/13 94/224/13 85/156/13
f 95/177/16 96/225/16 90/178/16
