# Blender 4.2.0
# www.blender.org
o Door
v 0.600000 1.250000 0.050000
v 0.600000 -1.250000 0.050000
v -0.600000 1.250000 0.050000
v -0.600000 -1.250000 0.050000
v 0.395346 1.250000 0.050000
v -0.395346 1.250000 0.050000
v -0.395346 -1.250000 0.050000
v 0.395346 -1.250000 0.050000
v -0.600000 -0.204294 0.050000
v 0.600000 -0.204294 0.050000
v 0.395346 -0.204294 0.050000
v -0.395346 -0.204294 0.050000
v 0.364110 -0.173058 0.050000
v 0.364110 1.218764 0.050000
v -0.364110 1.218764 0.050000
v -0.364110 -0.173058 0.050000
v 0.364110 -0.235530 0.030413
v 0.364110 -1.218764 0.030413
v -0.364110 -1.218764 0.030413
v -0.364110 -0.235530 0.030413
v -0.364110 1.218764 0.000000
v 0.364110 1.218764 0.000000
v 0.364110 -0.173058 0.000000
v -0.364110 -0.173058 0.000000
v -0.600000 -1.250000 0.000000
v 0.600000 1.250000 0.000000
v -0.600000 1.250000 0.000000
v 0.600000 -1.250000 0.000000
v -0.395346 -1.250000 0.000000
v 0.395346 -1.250000 0.000000
v 0.395346 1.250000 0.000000
v -0.395346 1.250000 0.000000
v 0.600000 -0.204294 0.000000
v -0.600000 -0.204294 0.000000
v 0.364110 -1.218764 0.036684
v 0.377426 -1.232080 0.050000
v 0.377426 -0.222214 0.050000
v 0.364110 -0.235530 0.036684
v -0.377426 -0.222214 0.050000
v -0.364110 -0.235530 0.036684
v -0.364110 -1.218764 0.036684
v -0.377426 -1.232080 0.050000
v 0.600000 1.250000 -0.050000
v 0.600000 -1.250000 -0.050000
v -0.600000 1.250000 -0.050000
v -0.600000 -1.250000 -0.050000
v 0.395346 1.250000 -0.050000
v -0.395346 1.250000 -0.050000
v -0.395346 -1.250000 -0.050000
v 0.395346 -1.250000 -0.050000
v -0.600000 -0.204294 -0.050000
v 0.600000 -0.204294 -0.050000
v 0.395346 -0.204294 -0.050000
v -0.395346 -0.204294 -0.050000
v 0.364110 -0.173058 -0.050000
v 0.364110 1.218764 -0.050000
v -0.364110 1.218764 -0.050000
v -0.364110 -0.173058 -0.050000
v 0.364110 -0.235530 -0.030413
v 0.364110 -1.218764 -0.030413
v -0.364110 -1.218764 -0.030413
v -0.364110 -0.235530 -0.030413
v 0.364110 -1.218764 -0.036684
v 0.377426 -1.232080 -0.050000
v 0.377426 -0.222214 -0.050000
v 0.364110 -0.235530 -0.036684
v -0.377426 -0.222214 -0.050000
v -0.364110 -0.235530 -0.036684
v -0.364110 -1.218764 -0.036684
v -0.377426 -1.232080 -0.050000
vn -0.0000 1.0000 -0.0000
vn -0.0000 -0.0000 1.0000
vn -0.0000 -1.0000 -0.0000
vn 1.0000 -0.0000 -0.0000
vn -1.0000 -0.0000 -0.0000
vn -0.7071 -0.0000 0.7071
vn -0.0000 0.7071 0.7071
vn -0.0000 -0.7071 0.7071
vn 0.7071 -0.0000 0.7071
vn -0.0000 -0.0000 -1.0000
vn -0.7071 -0.0000 -0.7071
vn -0.0000 0.7071 -0.7071
vn -0.0000 -0.7071 -0.7071
vn 0.7071 -0.0000 -0.7071
vt 0.789092 0.942881
vt 0.774203 0.881941
vt 0.789092 0.881941
vt 0.296385 0.000000
vt 0.357325 0.433046
vt 0.296385 0.433046
vt 0.818869 0.942881
vt 0.803981 0.881941
vt 0.818869 0.881941
vt 0.946380 0.000000
vt 0.961269 0.433046
vt 0.946380 0.433046
vt 0.818869 0.646496
vt 0.803981 0.585556
vt 0.818869 0.585556
vt 0.803981 0.646496
vt 0.000000 0.000000
vt 0.060940 0.433046
vt 0.000000 0.433046
vt 0.789092 0.646496
vt 0.774203 0.585556
vt 0.789092 0.585556
vt 0.774203 0.646496
vt 0.060940 0.744426
vt 0.291049 0.739090
vt 0.296385 0.744426
vt 0.000000 0.744426
vt 0.961269 0.744426
vt 0.946380 0.744426
vt 0.357325 0.744426
vt 0.060940 0.000000
vt 0.070241 0.423745
vt 0.070241 0.009301
vt 0.287084 0.009301
vt 0.287084 0.423745
vt 0.912446 0.585556
vt 0.914313 0.802399
vt 0.912446 0.802399
vt 0.906844 0.878335
vt 0.904977 0.585556
vt 0.906844 0.585556
vt 0.897277 0.589522
vt 0.899144 0.806364
vt 0.897277 0.806364
vt 0.714649 0.000000
vt 0.931492 0.292778
vt 0.714649 0.292778
vt 0.291049 0.438382
vt 0.906844 0.585556
vt 0.908711 0.878335
vt 0.906844 0.878335
vt 0.066276 0.438382
vt 0.961269 0.433046
vt 0.976157 0.744426
vt 0.961269 0.744426
vt 0.714649 0.585556
vt 0.729538 1.000000
vt 0.714649 1.000000
vt 0.833758 0.585556
vt 0.848646 0.802399
vt 0.833758 0.802399
vt 0.863535 0.585556
vt 0.878423 0.802399
vt 0.863535 0.802399
vt 0.961269 0.000000
vt 0.976157 0.433046
vt 0.774203 1.000000
vt 0.759315 0.585556
vt 0.774203 0.585556
vt 0.070241 0.735125
vt 0.070241 0.442347
vt 0.066276 0.739090
vt 0.287084 0.735125
vt 0.893312 0.585556
vt 0.893312 0.810329
vt 0.287084 0.442347
vt 0.803980 0.881941
vt 0.418265 0.000000
vt 0.418265 0.433046
vt 0.833758 0.881941
vt 0.931492 0.433046
vt 0.833758 0.585556
vt 0.833758 0.646496
vt 0.653709 0.433046
vt 0.714649 0.000000
vt 0.714649 0.433046
vt 0.803980 0.585556
vt 0.803980 0.646496
vt 0.423601 0.739090
vt 0.653709 0.744426
vt 0.418265 0.744426
vt 0.714649 0.744426
vt 0.931492 0.744426
vt 0.644408 0.009301
vt 0.653709 0.000000
vt 0.427566 0.423745
vt 0.916180 0.585556
vt 0.916180 0.802399
vt 0.910579 0.585556
vt 0.908711 0.585556
vt 0.899144 0.806364
vt 0.901012 0.589522
vt 0.901012 0.806364
vt 0.714649 0.585556
vt 0.931492 0.585556
vt 0.423601 0.438382
vt 0.910579 0.878335
vt 0.912446 0.585556
vt 0.912446 0.878335
vt 0.648373 0.438382
vt 0.991046 0.433046
vt 0.991046 0.744426
vt 0.744426 0.585556
vt 0.744426 1.000000
vt 0.863535 0.585556
vt 0.863535 0.802399
vt 0.893312 0.585556
vt 0.893312 0.802399
vt 0.991046 0.000000
vt 0.744426 1.000000
vt 0.744426 0.585556
vt 0.644408 0.735125
vt 0.644408 0.442347
vt 0.427566 0.735125
vt 0.648373 0.739090
vt 0.904977 0.585556
vt 0.904977 0.810329
vt 0.427566 0.442347
vt 0.774203 0.942881
vt 0.357325 0.000000
vt 0.803981 0.942881
vt 0.961269 0.000000
vt 0.914313 0.585556
vt 0.904977 0.878335
vt 0.899144 0.589522
vt 0.931492 0.000000
vt 0.729538 0.585556
vt 0.848646 0.585556
vt 0.878423 0.585556
vt 0.976157 0.000000
vt 0.759315 1.000000
vt 0.803980 0.942881
vt 0.833758 0.942881
vt 0.931492 0.000000
vt 0.644408 0.423745
vt 0.427566 0.009301
vt 0.910579 0.878335
vt 0.910579 0.585556
s 0
f 27/1/1 6/2/1 32/3/1
f 6/4/2 9/5/2 12/6/2
f 28/7/3 8/8/3 30/9/3
f 26/10/4 10/11/4 33/12/4
f 29/13/3 4/14/3 25/15/3
f 30/9/3 7/16/3 29/13/3
f 1/17/2 11/18/2 10/19/2
f 31/20/1 1/21/1 26/22/1
f 32/3/1 5/23/1 31/20/1
f 8/24/2 42/25/2 7/26/2
f 10/19/2 8/24/2 2/27/2
f 33/12/4 2/28/4 28/29/4
f 12/6/2 4/30/2 7/26/2
f 5/31/2 13/32/2 11/18/2
f 6/4/2 14/33/2 5/31/2
f 12/6/2 15/34/2 6/4/2
f 11/18/2 16/35/2 12/6/2
f 35/36/1 19/37/1 41/38/1
f 41/39/4 20/40/4 40/41/4
f 40/42/3 17/43/3 38/44/3
f 17/45/2 19/46/2 18/47/2
f 7/26/2 39/48/2 12/6/2
f 38/49/5 18/50/5 35/51/5
f 12/6/2 37/52/2 11/18/2
f 9/53/5 25/54/5 4/55/5
f 14/56/5 23/57/5 13/58/5
f 13/59/1 24/60/1 16/61/1
f 15/62/3 22/63/3 14/64/3
f 3/65/5 34/66/5 9/53/5
f 16/67/4 21/68/4 15/69/4
f 35/70/6 37/52/6 38/71/6
f 36/72/7 41/73/7 42/25/7
f 39/74/8 38/44/8 37/75/8
f 42/25/9 40/76/9 39/48/9
f 11/18/2 36/72/2 8/24/2
f 48/77/1 27/1/1 32/3/1
f 51/5/10 48/78/10 54/79/10
f 50/80/3 28/7/3 30/9/3
f 52/81/4 26/10/4 33/12/4
f 46/82/3 29/13/3 25/15/3
f 49/83/3 30/9/3 29/13/3
f 53/84/10 43/85/10 52/86/10
f 43/87/1 31/20/1 26/22/1
f 47/88/1 32/3/1 31/20/1
f 70/89/10 50/90/10 49/91/10
f 50/90/10 52/86/10 44/92/10
f 44/93/4 33/12/4 28/29/4
f 46/30/10 54/79/10 49/91/10
f 53/84/10 56/94/10 47/95/10
f 56/94/10 48/78/10 47/95/10
f 48/78/10 58/96/10 54/79/10
f 58/96/10 53/84/10 54/79/10
f 61/37/1 63/97/1 69/98/1
f 62/99/4 69/50/4 68/100/4
f 59/101/3 68/102/3 66/103/3
f 61/104/10 59/46/10 60/105/10
f 67/106/10 49/91/10 54/79/10
f 60/107/5 66/108/5 63/109/5
f 65/110/10 54/79/10 53/84/10
f 25/54/5 51/111/5 46/112/5
f 23/57/5 56/113/5 55/114/5
f 24/60/1 55/115/1 58/116/1
f 22/63/3 57/117/3 56/118/3
f 34/66/5 45/119/5 51/111/5
f 21/68/4 58/120/4 57/121/4
f 65/110/11 63/122/11 66/123/11
f 69/124/12 64/125/12 70/89/12
f 66/103/13 67/126/13 65/127/13
f 68/128/14 70/89/14 67/106/14
f 64/125/10 53/84/10 50/90/10
f 27/1/1 3/129/1 6/2/1
f 6/4/2 3/130/2 9/5/2
f 28/7/3 2/131/3 8/8/3
f 26/10/4 1/132/4 10/11/4
f 29/13/3 7/16/3 4/14/3
f 30/9/3 8/8/3 7/16/3
f 1/17/2 5/31/2 11/18/2
f 31/20/1 5/23/1 1/21/1
f 32/3/1 6/2/1 5/23/1
f 8/24/2 36/72/2 42/25/2
f 10/19/2 11/18/2 8/24/2
f 33/12/4 10/11/4 2/28/4
f 12/6/2 9/5/2 4/30/2
f 5/31/2 14/33/2 13/32/2
f 6/4/2 15/34/2 14/33/2
f 12/6/2 16/35/2 15/34/2
f 11/18/2 13/32/2 16/35/2
f 35/36/1 18/133/1 19/37/1
f 41/39/4 19/134/4 20/40/4
f 40/42/3 20/135/3 17/43/3
f 17/45/2 20/136/2 19/46/2
f 7/26/2 42/25/2 39/48/2
f 38/49/5 17/100/5 18/50/5
f 12/6/2 39/48/2 37/52/2
f 9/53/5 34/66/5 25/54/5
f 14/56/5 22/137/5 23/57/5
f 13/59/1 23/138/1 24/60/1
f 15/62/3 21/139/3 22/63/3
f 3/65/5 27/140/5 34/66/5
f 16/67/4 24/141/4 21/68/4
f 35/70/6 36/72/6 37/52/6
f 36/72/7 35/70/7 41/73/7
f 39/74/8 40/42/8 38/44/8
f 42/25/9 41/73/9 40/76/9
f 11/18/2 37/52/2 36/72/2
f 48/77/1 45/142/1 27/1/1
f 51/5/10 45/130/10 48/78/10
f 50/80/3 44/143/3 28/7/3
f 52/81/4 43/144/4 26/10/4
f 46/82/3 49/83/3 29/13/3
f 49/83/3 50/80/3 30/9/3
f 53/84/10 47/95/10 43/85/10
f 43/87/1 47/88/1 31/20/1
f 47/88/1 48/77/1 32/3/1
f 70/89/10 64/125/10 50/90/10
f 50/90/10 53/84/10 52/86/10
f 44/93/4 52/81/4 33/12/4
f 46/30/10 51/5/10 54/79/10
f 53/84/10 55/145/10 56/94/10
f 56/94/10 57/146/10 48/78/10
f 48/78/10 57/146/10 58/96/10
f 58/96/10 55/145/10 53/84/10
f 61/37/1 60/133/1 63/97/1
f 62/99/4 61/147/4 69/50/4
f 59/101/3 62/135/3 68/102/3
f 61/104/10 62/47/10 59/46/10
f 67/106/10 70/89/10 49/91/10
f 60/107/5 59/148/5 66/108/5
f 65/110/10 67/106/10 54/79/10
f 25/54/5 34/66/5 51/111/5
f 23/57/5 22/137/5 56/113/5
f 24/60/1 23/138/1 55/115/1
f 22/63/3 21/139/3 57/117/3
f 34/66/5 27/140/5 45/119/5
f 21/68/4 24/141/4 58/120/4
f 65/110/11 64/125/11 63/122/11
f 69/124/12 63/122/12 64/125/12
f 66/103/13 68/102/13 67/126/13
f 68/128/14 69/124/14 70/89/14
f 64/125/10 65/110/10 53/84/10
o Door.Glass
v -0.381257 -0.184936 0.011027
v -0.381257 1.230643 0.011027
v -0.381257 -0.184936 -0.011027
v -0.381257 1.230643 -0.011027
v 0.381257 -0.184936 0.011027
v 0.381257 1.230643 0.011027
v 0.381257 -0.184936 -0.011027
v 0.381257 1.230643 -0.011027
vn -1.0000 -0.0000 -0.0000
vn -0.0000 -0.0000 -1.0000
vn 1.0000 -0.0000 -0.0000
vn -0.0000 -0.0000 1.0000
vn -0.0000 -1.0000 -0.0000
vn -0.0000 1.0000 -0.0000
vt 0.492210 1.000000
vt 0.507790 0.000000
vt 0.492210 0.000000
vt 0.230671 1.000000
vt 0.769329 0.000000
vt 0.230671 0.000000
vt 0.507790 1.000000
vt 0.769329 1.000000
vt 0.769329 0.507790
vt 0.230671 0.492210
vt 0.230671 0.507790
vt 0.769329 0.492210
s 0
f 72/149/15 73/150/15 71/151/15
f 74/152/16 77/153/16 73/154/16
f 78/155/17 75/151/17 77/150/17
f 76/156/18 71/154/18 75/153/18
f 77/157/19 71/158/19 73/159/19
f 74/159/20 76/160/20 78/157/20
f 72/149/15 74/155/15 73/150/15
f 74/152/16 78/156/16 77/153/16
f 78/155/17 76/149/17 75/151/17
f 76/156/18 72/152/18 71/154/18
f 77/157/19 75/160/19 71/158/19
f 74/159/20 72/158/20 76/160/20
o DoorLock
v 0.447673 -0.300000 0.000000
v 0.447673 0.100000 0.000000
v 0.547673 -0.300000 0.000000
v 0.547673 0.100000 0.000000
v 0.454703 -0.292970 0.066765
v 0.447673 -0.300000 0.059735
v 0.454703 0.092970 0.066765
v 0.447673 0.100000 0.059735
v 0.540643 -0.292970 0.066765
v 0.547673 -0.300000 0.059735
v 0.540643 0.092970 0.066765
v 0.547673 0.100000 0.059735
v 0.454703 -0.292970 -0.066765
v 0.447673 -0.300000 -0.059735
v 0.454703 0.092970 -0.066765
v 0.447673 0.100000 -0.059735
v 0.540643 -0.292970 -0.066765
v 0.547673 -0.300000 -0.059735
v 0.540643 0.092970 -0.066765
v 0.547673 0.100000 -0.059735
vn -0.0000 -1.0000 -0.0000
vn -0.0000 1.0000 -0.0000
vn 1.0000 -0.0000 -0.0000
vn -0.0000 -0.0000 1.0000
vn -0.7071 -0.0000 0.7071
vn 0.7071 -0.0000 0.7071
vn -0.0000 -0.7071 0.7071
vn -0.0000 0.7071 0.7071
vn -1.0000 -0.0000 -0.0000
vn -0.0000 -0.0000 -1.0000
vn -0.7071 -0.0000 -0.7071
vn 0.7071 -0.0000 -0.7071
vn -0.0000 -0.7071 -0.7071
vn -0.0000 0.7071 -0.7071
vt 0.715587 0.250000
vt 0.566250 -0.000000
vt 0.715587 0.000000
vt 0.715587 0.500000
vt 0.566250 0.250000
vt 0.715587 0.250000
vt 0.250000 0.000000
vt 0.399337 1.000000
vt 0.250000 1.000000
vt 0.017576 0.017576
vt 0.232424 0.982424
vt 0.017576 0.982424
vt 0.232424 0.017576
vt 0.250000 1.000000
vt 0.000000 0.000000
vt 0.566250 0.250000
vt 0.548674 0.017576
vt 0.566250 0.500000
vt 0.548674 0.267576
vt 0.399337 0.000000
vt 0.548674 1.000000
vt 0.399337 1.000000
vt 0.399337 0.000000
vt 0.250000 0.000000
vt 0.000000 1.000000
vt 0.548674 0.232424
vt 0.548674 0.482424
vt 0.548674 0.000000
s 0
f 81/161/21 84/162/21 79/163/21
f 80/164/22 90/165/22 82/166/22
f 82/167/23 88/168/23 81/169/23
f 89/170/24 83/171/24 87/172/24
f 85/173/25 84/174/25 83/171/25
f 87/172/26 90/175/26 89/170/26
f 88/176/27 83/177/27 84/162/27
f 86/178/28 89/179/28 90/165/28
f 86/180/29 79/181/29 84/182/29
f 92/162/21 81/161/21 79/163/21
f 98/165/22 80/164/22 82/166/22
f 96/168/23 82/167/23 81/169/23
f 91/171/30 97/170/30 95/172/30
f 92/174/31 93/173/31 91/171/31
f 98/175/32 95/172/32 97/170/32
f 91/177/33 96/176/33 92/162/33
f 97/179/34 94/178/34 98/165/34
f 79/181/29 94/180/29 92/182/29
f 81/161/21 88/176/21 84/162/21
f 80/164/22 86/178/22 90/165/22
f 82/167/23 90/183/23 88/168/23
f 89/170/24 85/173/24 83/171/24
f 85/173/25 86/184/25 84/174/25
f 87/172/26 88/185/26 90/175/26
f 88/176/27 87/186/27 83/177/27
f 86/178/28 85/187/28 89/179/28
f 86/180/29 80/188/29 79/181/29
f 92/162/21 96/176/21 81/161/21
f 98/165/22 94/178/22 80/164/22
f 96/168/23 98/183/23 82/167/23
f 91/171/30 93/173/30 97/170/30
f 92/174/31 94/184/31 93/173/31
f 98/175/32 96/185/32 95/172/32
f 91/177/33 95/186/33 96/176/33
f 97/179/34 93/187/34 94/178/34
f 79/181/29 80/188/29 94/180/29
